<svg xmlns="http://www.w3.org/2000/svg" viewBox="0 0 64 64" role="img" aria-label="Green Curve Solutions">
  <defs>
    <linearGradient id="fbg" x1="0" y1="0" x2="1" y2="1">
      <stop offset="0" stop-color="#0F3527"/><stop offset="1" stop-color="#081E15"/>
    </linearGradient>
    <linearGradient id="fmk" x1="0" y1="1" x2="1" y2="0">
      <stop offset="0" stop-color="#149256"/><stop offset="0.55" stop-color="#3CC479"/><stop offset="1" stop-color="#7FE0A8"/>
    </linearGradient>
  </defs>
  <rect width="64" height="64" rx="14" fill="url(#fbg)"/>
  <g transform="translate(1.6,1.6) scale(0.608)">
    <path d="M19.61 79.12C19.68 78.78 20.30 78.68 20.64 78.45C20.98 78.22 21.32 77.98 21.65 77.73C21.99 77.48 22.32 77.22 22.64 76.96C22.97 76.69 23.29 76.41 23.61 76.13C23.93 75.84 24.25 75.55 24.55 75.24C24.86 74.93 25.17 74.62 25.47 74.29C25.76 73.96 26.06 73.62 26.34 73.27C26.63 72.92 26.91 72.56 27.18 72.18C27.45 71.81 27.72 71.42 27.98 71.03C28.24 70.63 28.49 70.22 28.73 69.79C28.98 69.37 29.21 68.94 29.44 68.49C29.67 68.04 29.89 67.58 30.10 67.11C30.32 66.64 30.49 66.12 30.73 65.68C30.97 65.24 31.27 64.88 31.54 64.47C31.80 64.06 32.07 63.65 32.34 63.23C32.60 62.81 32.87 62.38 33.13 61.95C33.40 61.52 33.66 61.08 33.93 60.64C34.19 60.20 34.46 59.76 34.73 59.31C35.00 58.86 35.27 58.41 35.54 57.96C35.81 57.50 36.09 57.04 36.37 56.58C36.65 56.12 36.93 55.66 37.22 55.19C37.50 54.72 37.79 54.25 38.09 53.78C38.39 53.31 38.69 52.84 39.00 52.37C39.30 51.89 39.62 51.42 39.94 50.94C40.26 50.46 40.59 49.99 40.93 49.51C41.27 49.03 41.61 48.55 41.97 48.08C42.32 47.60 42.69 47.12 43.06 46.64C43.44 46.17 43.82 45.69 44.22 45.21C44.62 44.74 45.03 44.26 45.45 43.79C45.87 43.31 46.31 42.84 46.75 42.37C47.20 41.90 47.66 41.43 48.14 40.96C48.62 40.49 49.11 40.03 49.61 39.56C50.12 39.10 50.64 38.63 51.17 38.17C51.71 37.71 52.26 37.26 52.83 36.80C53.40 36.34 53.99 35.89 54.59 35.44C55.20 34.98 55.82 34.53 56.45 34.08C57.09 33.63 57.74 33.19 58.41 32.74C59.08 32.29 59.77 31.85 60.47 31.40C61.18 30.95 61.90 30.51 62.63 30.06C63.36 29.61 64.11 29.17 64.87 28.71C65.63 28.26 66.41 27.81 67.20 27.35C67.98 26.89 68.78 26.43 69.58 25.95C70.39 25.48 71.20 25.00 72.01 24.51C72.83 24.02 73.65 23.52 74.47 23.01C75.28 22.50 76.11 21.97 76.92 21.42C77.73 20.88 78.54 20.32 79.34 19.74C80.13 19.15 80.92 18.55 81.70 17.93C82.48 17.31 83.85 15.89 84.00 16.00C84.15 16.11 83.04 17.72 82.58 18.58C82.12 19.44 81.67 20.30 81.24 21.16C80.80 22.01 80.38 22.87 79.96 23.72C79.54 24.57 79.14 25.42 78.74 26.26C78.34 27.10 77.95 27.94 77.56 28.77C77.17 29.60 76.79 30.42 76.41 31.23C76.02 32.05 75.64 32.85 75.26 33.65C74.88 34.44 74.50 35.23 74.11 36.00C73.73 36.78 73.35 37.54 72.96 38.30C72.57 39.05 72.18 39.79 71.78 40.52C71.39 41.25 70.99 41.96 70.59 42.67C70.19 43.37 69.78 44.06 69.37 44.74C68.96 45.42 68.54 46.09 68.12 46.74C67.70 47.40 67.28 48.04 66.85 48.67C66.42 49.29 65.99 49.91 65.55 50.51C65.11 51.12 64.67 51.71 64.22 52.28C63.78 52.86 63.33 53.43 62.87 53.98C62.42 54.53 61.96 55.08 61.50 55.60C61.04 56.13 60.57 56.65 60.11 57.16C59.64 57.66 59.17 58.16 58.70 58.64C58.22 59.12 57.75 59.60 57.27 60.06C56.79 60.52 56.31 60.97 55.83 61.41C55.35 61.85 54.87 62.28 54.38 62.70C53.90 63.12 53.41 63.53 52.92 63.92C52.44 64.32 51.95 64.71 51.46 65.09C50.98 65.48 50.49 65.85 50.00 66.21C49.51 66.57 49.03 66.92 48.54 67.27C48.05 67.61 47.56 67.95 47.08 68.28C46.59 68.61 46.11 68.93 45.63 69.24C45.14 69.56 44.66 69.86 44.18 70.16C43.70 70.46 43.22 70.75 42.74 71.03C42.27 71.32 41.79 71.59 41.32 71.87C40.84 72.14 40.37 72.40 39.91 72.66C39.44 72.92 38.97 73.17 38.51 73.42C38.04 73.67 37.60 73.94 37.13 74.15C36.65 74.36 36.14 74.52 35.66 74.70C35.17 74.88 34.69 75.06 34.21 75.23C33.74 75.41 33.27 75.58 32.81 75.75C32.34 75.92 31.89 76.10 31.43 76.27C30.98 76.44 30.54 76.60 30.10 76.77C29.65 76.94 29.22 77.11 28.79 77.27C28.35 77.44 27.93 77.60 27.50 77.76C27.08 77.92 26.66 78.08 26.24 78.24C25.83 78.40 25.42 78.56 25.01 78.72C24.60 78.87 24.19 79.03 23.79 79.18C23.39 79.33 22.99 79.48 22.59 79.63C22.19 79.78 21.79 79.93 21.40 80.07C21.00 80.21 20.52 80.65 20.22 80.49C19.92 80.34 19.54 79.46 19.61 79.12Z" fill="url(#fmk)"/>
    <circle cx="20" cy="80" r="6.5" fill="#6FE3C4"/>
  </g>
</svg>
