<svg xmlns="http://www.w3.org/2000/svg" viewBox="0 0 100 100" role="img" aria-label="Green Curve Solutions">
  <title>Green Curve Solutions</title>
  <defs>
    <linearGradient id="gcLeaf" x1="0" y1="1" x2="1" y2="0">
      <stop offset="0" stop-color="#0B3E2C"/><stop offset="0.55" stop-color="#149256"/><stop offset="1" stop-color="#3CC479"/>
    </linearGradient>
  </defs>
  <path d="M19.79 79.53C19.92 79.31 20.51 79.14 20.86 78.93C21.22 78.72 21.58 78.51 21.93 78.29C22.28 78.07 22.63 77.84 22.98 77.60C23.33 77.37 23.67 77.12 24.01 76.87C24.35 76.62 24.69 76.35 25.03 76.08C25.36 75.81 25.69 75.53 26.02 75.23C26.35 74.94 26.67 74.64 26.99 74.32C27.30 74.01 27.62 73.69 27.92 73.35C28.23 73.02 28.53 72.67 28.83 72.31C29.12 71.95 29.41 71.59 29.70 71.20C29.98 70.82 30.26 70.43 30.53 70.02C30.80 69.62 31.06 69.20 31.32 68.77C31.58 68.35 31.81 67.88 32.08 67.47C32.35 67.05 32.66 66.68 32.95 66.28C33.24 65.88 33.52 65.48 33.81 65.06C34.09 64.65 34.38 64.23 34.66 63.80C34.95 63.38 35.23 62.95 35.51 62.51C35.80 62.08 36.08 61.63 36.36 61.19C36.65 60.74 36.93 60.29 37.22 59.83C37.50 59.38 37.79 58.92 38.08 58.45C38.37 57.99 38.66 57.52 38.96 57.05C39.25 56.58 39.55 56.10 39.85 55.62C40.16 55.14 40.46 54.66 40.77 54.18C41.09 53.70 41.40 53.21 41.72 52.72C42.05 52.24 42.37 51.75 42.71 51.26C43.05 50.77 43.39 50.27 43.74 49.78C44.09 49.29 44.45 48.79 44.82 48.30C45.19 47.81 45.56 47.31 45.95 46.82C46.34 46.32 46.74 45.83 47.15 45.34C47.56 44.85 47.98 44.35 48.42 43.86C48.85 43.37 49.30 42.88 49.76 42.39C50.22 41.90 50.69 41.41 51.18 40.93C51.67 40.44 52.17 39.96 52.69 39.48C53.21 39.00 53.75 38.51 54.30 38.04C54.85 37.56 55.41 37.08 55.99 36.61C56.58 36.13 57.18 35.66 57.79 35.19C58.41 34.72 59.04 34.25 59.69 33.78C60.34 33.31 61.00 32.84 61.68 32.37C62.36 31.91 63.06 31.44 63.77 30.97C64.48 30.50 65.20 30.03 65.94 29.55C66.68 29.08 67.43 28.60 68.18 28.12C68.94 27.64 69.71 27.15 70.48 26.65C71.26 26.15 72.04 25.65 72.82 25.13C73.60 24.61 74.39 24.09 75.16 23.54C75.94 22.99 76.72 22.43 77.48 21.85C78.25 21.27 79.01 20.67 79.75 20.05C80.49 19.42 81.22 18.77 81.92 18.10C82.63 17.42 83.91 15.94 84.00 16.00C84.09 16.06 82.94 17.65 82.44 18.48C81.93 19.30 81.44 20.13 80.97 20.96C80.49 21.78 80.03 22.61 79.58 23.43C79.12 24.25 78.69 25.07 78.25 25.89C77.82 26.70 77.40 27.51 76.98 28.32C76.56 29.12 76.15 29.92 75.73 30.71C75.32 31.50 74.92 32.29 74.51 33.06C74.10 33.83 73.69 34.60 73.28 35.35C72.88 36.10 72.47 36.85 72.06 37.58C71.65 38.31 71.23 39.03 70.82 39.74C70.40 40.45 69.98 41.15 69.56 41.83C69.14 42.52 68.72 43.19 68.29 43.85C67.86 44.51 67.43 45.16 66.99 45.80C66.55 46.43 66.11 47.06 65.67 47.67C65.23 48.28 64.78 48.88 64.33 49.47C63.88 50.06 63.43 50.63 62.97 51.19C62.51 51.76 62.05 52.31 61.59 52.85C61.13 53.39 60.66 53.92 60.20 54.43C59.73 54.95 59.26 55.46 58.79 55.95C58.31 56.45 57.84 56.93 57.37 57.41C56.89 57.88 56.41 58.34 55.93 58.80C55.46 59.25 54.98 59.69 54.50 60.13C54.02 60.56 53.54 60.98 53.06 61.40C52.57 61.81 52.09 62.22 51.61 62.61C51.13 63.01 50.65 63.39 50.17 63.77C49.69 64.15 49.21 64.52 48.73 64.88C48.25 65.25 47.77 65.60 47.30 65.95C46.82 66.29 46.35 66.63 45.87 66.96C45.40 67.29 44.93 67.62 44.46 67.93C43.99 68.25 43.52 68.56 43.05 68.86C42.59 69.17 42.12 69.46 41.66 69.76C41.20 70.05 40.74 70.33 40.28 70.61C39.82 70.89 39.37 71.16 38.92 71.43C38.47 71.70 38.02 71.96 37.57 72.22C37.12 72.47 36.69 72.74 36.24 72.97C35.79 73.21 35.32 73.40 34.86 73.61C34.41 73.83 33.95 74.03 33.51 74.24C33.06 74.44 32.62 74.64 32.19 74.85C31.75 75.05 31.32 75.25 30.89 75.44C30.47 75.64 30.04 75.84 29.62 76.03C29.21 76.22 28.79 76.42 28.38 76.61C27.97 76.80 27.56 76.98 27.16 77.17C26.75 77.36 26.35 77.54 25.95 77.72C25.55 77.90 25.15 78.08 24.76 78.26C24.37 78.43 23.97 78.61 23.58 78.78C23.19 78.95 22.80 79.12 22.42 79.29C22.03 79.45 21.64 79.61 21.26 79.77C20.87 79.93 20.35 80.28 20.11 80.24C19.86 80.20 19.66 79.75 19.79 79.53Z" fill="url(#gcLeaf)"/>
  <circle cx="20" cy="80" r="4.6" fill="#0E7C6B"/>
</svg>
